<?xml version="1.0" standalone="no"?>
<!DOCTYPE svg PUBLIC "-//W3C//DTD SVG 20010904//EN"
 "http://www.w3.org/TR/2001/REC-SVG-20010904/DTD/svg10.dtd">
<svg version="1.0" xmlns="http://www.w3.org/2000/svg"
 width="32.000000pt" height="32.000000pt" viewBox="0 0 32.000000 32.000000"
 preserveAspectRatio="xMidYMid meet">

<g transform="translate(0.000000,32.000000) scale(0.100000,-0.100000)"
fill="#000000" stroke="none">
<path d="M62 278 c-7 -7 -12 -31 -12 -55 0 -32 -4 -43 -16 -43 -12 0 -14 -8
-9 -47 4 -27 14 -59 23 -71 16 -22 24 -24 112 -24 88 0 96 2 112 24 9 12 19
44 23 71 l6 47 -115 0 -116 0 0 45 c0 38 3 45 19 45 23 0 36 -16 21 -25 -20
-12 -10 -25 20 -25 36 0 36 3 9 41 -21 30 -56 38 -77 17z m213 -143 c-3 -14
-7 -36 -10 -50 -5 -25 -7 -25 -105 -25 -111 0 -98 -8 -115 75 l-5 25 120 0
120 0 -5 -25z"/>
</g>
</svg>
