<svg xmlns="http://www.w3.org/2000/svg" width="309" height="94" viewBox="0 0 309 94" version="1.1"><path d="M 41.250 18.214 L 37 22.471 37 18.735 L 37 15 30 15 L 23 15 23 25.071 L 23 35.143 15.250 42.531 L 7.500 49.919 13.250 49.959 L 19 50 19 64.500 L 19 79 46.500 79 L 74 79 74 64.548 L 74 50.095 80.028 49.798 L 86.055 49.500 67.049 32 C 56.595 22.375, 47.470 14.378, 46.771 14.228 C 46.072 14.079, 43.587 15.872, 41.250 18.214 M 40.986 21.297 L 35.500 26.350 35.193 22.175 L 34.885 18 29.943 18 L 25 18 25 27.126 L 25 36.251 18.750 42.081 L 12.500 47.911 17.250 47.956 L 22 48 22 62.500 L 22 77 30 77 L 38 77 38 63.461 L 38 49.922 46.750 50.211 L 55.500 50.500 55.779 63.750 L 56.058 77 64.029 77 L 72 77 72 62.057 L 72 47.115 75.874 46.807 L 79.749 46.500 66.242 34 C 58.813 27.125, 51.326 20.317, 49.603 18.872 L 46.472 16.243 40.986 21.297 M 112 34.570 C 112 50.891, 112.032 51.134, 114.122 50.820 C 116.149 50.514, 116.244 49.968, 116.220 38.750 C 116.206 32.287, 116.312 27, 116.454 27 C 116.596 27, 119.590 31.258, 123.106 36.463 C 126.623 41.668, 129.994 45.943, 130.597 45.963 C 131.201 45.983, 132.101 45.181, 132.597 44.181 C 133.953 41.448, 143.425 28.011, 144 28.005 C 144.275 28.001, 144.500 33.062, 144.500 39.250 C 144.500 50.192, 144.562 50.509, 146.775 50.823 L 149.050 51.146 148.775 34.823 C 148.515 19.404, 148.392 18.500, 146.551 18.500 C 145.227 18.500, 142.461 21.533, 137.926 27.958 C 134.254 33.161, 130.856 37.521, 130.375 37.648 C 129.894 37.775, 127.849 35.319, 125.832 32.190 C 118.911 21.453, 116.030 18, 113.994 18 C 112.082 18, 112 18.684, 112 34.570 M 160.701 18.632 C 160.316 19.018, 160 26.490, 160 35.236 L 160 51.139 162.250 50.820 C 164.476 50.503, 164.500 50.331, 164.500 34.514 C 164.500 20.875, 164.273 18.484, 162.951 18.229 C 162.099 18.065, 161.087 18.246, 160.701 18.632 M 176 34.500 L 176 51 188.923 51 C 201.367 51, 201.961 50.904, 204.923 48.411 C 207.998 45.824, 208 45.817, 208 35.345 C 208 29.583, 207.514 23.960, 206.920 22.850 C 205.004 19.271, 199.924 18, 187.532 18 L 176 18 176 34.500 M 225.374 18.644 C 224.205 18.898, 222.182 20.242, 220.878 21.630 C 218.875 23.762, 218.451 25.402, 218.141 32.228 C 217.416 48.206, 219.983 51, 235.395 51 C 243.986 51, 245.155 50.771, 247.694 48.588 C 250.386 46.275, 250.514 45.751, 250.838 35.702 C 251.174 25.271, 251.163 25.214, 248.170 21.864 C 245.216 18.557, 245.016 18.497, 236.333 18.341 C 231.475 18.253, 226.543 18.390, 225.374 18.644 M 261.612 19.750 C 261.325 20.712, 261.182 28.025, 261.295 36 C 261.496 50.205, 261.546 50.507, 263.750 50.820 C 265.802 51.111, 266 50.736, 266 46.570 L 266 42 273.792 42 L 281.584 42 286 46.500 C 290.619 51.207, 294 52.337, 294 49.174 C 294 48.170, 292.875 46.292, 291.500 45 C 290.125 43.708, 289 42.303, 289 41.877 C 289 41.451, 290.125 39.889, 291.500 38.405 C 293.527 36.218, 294 34.683, 294 30.288 C 294 19.788, 291.106 18, 274.117 18 C 263.571 18, 262.072 18.210, 261.612 19.750 M 305.667 18.667 C 305.300 19.033, 305 26.458, 305 35.167 C 305 50.333, 305.084 51, 307 51 C 308.919 51, 309 50.333, 309 34.500 C 309 21.417, 308.724 18, 307.667 18 C 306.933 18, 306.033 18.300, 305.667 18.667 M 180.518 23.970 C 180.189 24.504, 180.007 29.679, 180.114 35.470 L 180.310 46 191.120 46 C 204.020 46, 204 46.019, 204 34.221 C 204 23.534, 203.368 23, 190.730 23 C 185.444 23, 180.848 23.437, 180.518 23.970 M 224.571 24.571 C 223.405 25.738, 223 28.203, 223 34.137 C 223 45.809, 223.182 46, 234.335 46 C 240.208 46, 244.039 45.561, 244.800 44.800 C 245.561 44.039, 246 40.208, 246 34.335 C 246 23.182, 245.809 23, 234.137 23 C 228.203 23, 225.738 23.405, 224.571 24.571 M 266 30 L 266 37 276.378 37 C 288.172 37, 289.455 36.314, 289.455 30 C 289.455 23.686, 288.172 23, 276.378 23 L 266 23 266 30 M 40 65 L 40 77 46.500 77 L 53 77 53 65 L 53 53 46.500 53 L 40 53 40 65 M 161 63.500 C 159.980 64.729, 160.049 65, 161.378 65 C 162.270 65, 163 64.325, 163 63.500 C 163 62.675, 162.830 62, 162.622 62 C 162.415 62, 161.685 62.675, 161 63.500 M 158.592 67.356 C 155.921 69.391, 155.080 73.286, 156.555 76.793 C 157.644 79.382, 158.477 80, 160.880 80 C 162.518 80, 164.564 79.293, 165.429 78.429 C 167.307 76.550, 167.525 69.656, 165.750 68.267 C 163.617 66.598, 160.163 66.159, 158.592 67.356 M 241.223 67.557 C 238.179 69.689, 238.436 71.772, 241.994 73.797 C 245.416 75.744, 245.956 78, 243 78 C 241.900 78, 241 77.460, 241 76.800 C 241 75.919, 240.704 75.896, 239.887 76.713 C 238.244 78.356, 239.731 80, 242.859 80 C 248.440 80, 249.863 75.015, 245 72.500 C 241.357 70.616, 240.979 68.527, 244.439 69.395 C 247.508 70.166, 248.717 68.454, 246.094 67.050 C 243.631 65.732, 243.862 65.708, 241.223 67.557 M 113.481 73.501 C 113.466 78.657, 113.776 80, 114.981 79.999 C 116.177 79.998, 116.513 78.617, 116.562 73.499 C 116.613 68.246, 116.325 67, 115.062 67.001 C 113.808 67.002, 113.496 68.285, 113.481 73.501 M 129.491 73.501 C 129.483 79.066, 129.738 80, 131.260 80 C 132.657 80, 132.904 79.465, 132.411 77.500 C 132.002 75.872, 132.202 75, 132.985 75 C 133.646 75, 134.423 75.900, 134.710 77 C 135.491 79.985, 136.924 79.427, 138.564 75.500 C 140.465 70.951, 140.956 71.080, 140.467 76 C 140.120 79.485, 140.330 80, 142.102 80 C 143.643 80, 143.989 79.541, 143.533 78.104 C 143.202 77.061, 142.890 74.136, 142.839 71.604 C 142.719 65.643, 140.584 65.478, 138.008 71.230 C 136.780 73.975, 135.929 74.941, 135.587 73.980 C 133.408 67.863, 132.874 67, 131.275 67.001 C 129.758 67.002, 129.499 67.947, 129.491 73.501 M 180.830 73.500 C 182.235 77.075, 183.897 80, 184.524 80 C 185.151 80, 186.824 77.075, 188.243 73.500 C 190.689 67.334, 190.723 67, 188.911 67 C 187.581 67, 187 67.703, 187 69.309 C 187 71.791, 184.532 75.865, 183.595 74.929 C 183.283 74.616, 182.909 72.705, 182.764 70.682 C 182.549 67.690, 182.106 67.004, 180.388 67.002 C 178.284 67, 178.285 67.025, 180.830 73.500 M 202.500 73.503 L 202.500 80.001 206.750 80.001 C 210.415 80, 211 79.708, 211 77.878 C 211 76.112, 210.750 75.963, 209.513 76.989 C 208.695 77.668, 207.294 77.943, 206.400 77.600 C 205.060 77.086, 204.998 76.707, 206.048 75.443 C 206.748 74.599, 207.923 74.140, 208.660 74.423 C 209.397 74.706, 210 74.308, 210 73.538 C 210 72.769, 208.988 71.995, 207.750 71.820 C 204.725 71.390, 205.457 69.450, 208.554 69.688 C 210.102 69.807, 211 69.349, 211 68.438 C 211 67.412, 209.781 67.001, 206.750 67.003 L 202.500 67.005 202.500 73.503 M 223.500 73.500 C 223.500 78.859, 223.788 80, 225.141 80 C 226.483 80, 226.799 78.819, 226.879 73.500 C 226.962 67.956, 226.721 67, 225.238 67 C 223.766 67, 223.500 67.993, 223.500 73.500 M 158.429 71.428 C 157.492 75.159, 158.816 78.170, 161.234 77.808 C 164.035 77.389, 165.432 74.858, 164.628 71.655 C 163.720 68.037, 159.320 67.876, 158.429 71.428" stroke="none" fill="#080808" fill-rule="evenodd"/><path d="M 35.173 0.992 C 25.190 3.354, 11.832 13.381, 6.413 22.580 C -2.365 37.482, -2.161 57.903, 6.909 72.197 C 22.699 97.084, 57.885 101.425, 79.342 81.134 C 95.568 65.789, 98.852 40.470, 87.009 22.014 C 80.623 12.062, 68.781 3.575, 57.718 1.022 C 52.773 -0.119, 39.941 -0.136, 35.173 0.992 M 41.250 18.214 L 37 22.471 37 18.735 L 37 15 30 15 L 23 15 23 25.071 L 23 35.143 15.250 42.531 L 7.500 49.919 13.250 49.959 L 19 50 19 64.500 L 19 79 46.500 79 L 74 79 74 64.548 L 74 50.095 80.028 49.798 L 86.055 49.500 67.049 32 C 56.595 22.375, 47.470 14.378, 46.771 14.228 C 46.072 14.079, 43.587 15.872, 41.250 18.214 M 40.986 21.297 L 35.500 26.350 35.193 22.175 L 34.885 18 29.943 18 L 25 18 25 27.126 L 25 36.251 18.750 42.081 L 12.500 47.911 17.250 47.956 L 22 48 22 62.500 L 22 77 30 77 L 38 77 38 63.461 L 38 49.922 46.750 50.211 L 55.500 50.500 55.779 63.750 L 56.058 77 64.029 77 L 72 77 72 62.057 L 72 47.115 75.874 46.807 L 79.749 46.500 66.242 34 C 58.813 27.125, 51.326 20.317, 49.603 18.872 L 46.472 16.243 40.986 21.297 M 40 65 L 40 77 46.500 77 L 53 77 53 65 L 53 53 46.500 53 L 40 53 40 65" stroke="none" fill="#9be224" fill-rule="evenodd"/></svg>