<?xml version="1.0" standalone="no"?>
<!DOCTYPE svg PUBLIC "-//W3C//DTD SVG 20010904//EN"
 "http://www.w3.org/TR/2001/REC-SVG-20010904/DTD/svg10.dtd">
<svg version="1.0" xmlns="http://www.w3.org/2000/svg"
 width="94.000000pt" height="94.000000pt" viewBox="0 0 94.000000 94.000000"
 preserveAspectRatio="xMidYMid meet">

<g transform="translate(0.000000,94.000000) scale(0.100000,-0.100000)"
fill="#000000" stroke="none">
<path d="M425 770 c-22 -22 -43 -40 -47 -40 -4 0 -8 14 -8 30 l0 30 -70 0 -70
0 0 -98 0 -99 -75 -72 c-41 -40 -75 -75 -75 -77 0 -2 25 -4 55 -4 l55 0 0
-145 0 -145 275 0 275 0 0 145 0 144 61 3 62 3 -180 165 c-98 91 -188 173
-199 182 -20 17 -22 16 -59 -22z m270 -204 l100 -95 -37 -1 -38 0 0 -150 0
-150 -80 0 -79 0 -3 133 -3 132 -87 3 -88 3 0 -136 0 -135 -80 0 -80 0 0 145
0 145 -47 0 -48 1 63 57 62 57 0 93 0 92 50 0 50 0 0 -47 0 -48 57 57 57 57
65 -59 c36 -32 111 -101 166 -154z m-165 -276 l0 -120 -65 0 -65 0 0 120 0
120 65 0 65 0 0 -120z"/>
</g>
</svg>
