<?xml version="1.0" standalone="no"?>
<!DOCTYPE svg PUBLIC "-//W3C//DTD SVG 20010904//EN"
 "http://www.w3.org/TR/2001/REC-SVG-20010904/DTD/svg10.dtd">
<svg version="1.0" xmlns="http://www.w3.org/2000/svg"
 width="32.000000pt" height="32.000000pt" viewBox="0 0 32.000000 32.000000"
 preserveAspectRatio="xMidYMid meet">

<g transform="translate(0.000000,32.000000) scale(0.100000,-0.100000)"
fill="#000000" stroke="none">
<path d="M36 252 c-2 -4 -8 -51 -12 -105 l-7 -97 27 0 c14 0 26 5 26 10 0 6
37 10 90 10 53 0 90 -4 90 -10 0 -5 12 -10 26 -10 l27 0 -7 97 c-4 54 -10 101
-12 105 -7 10 -241 10 -248 0z m234 -47 c0 -38 -14 -47 -23 -15 -5 18 -14 20
-87 20 -73 0 -82 -2 -87 -20 -9 -32 -23 -23 -23 15 l0 35 110 0 110 0 0 -35z
m-120 -25 c0 -5 -13 -10 -30 -10 -16 0 -30 5 -30 10 0 6 14 10 30 10 17 0 30
-4 30 -10z m80 0 c0 -5 -13 -10 -30 -10 -16 0 -30 5 -30 10 0 6 14 10 30 10
17 0 30 -4 30 -10z m49 -72 c0 -24 -3 -37 -6 -30 -7 17 -219 17 -226 0 -3 -7
-6 6 -6 30 l-1 42 120 0 120 0 -1 -42z"/>
</g>
</svg>
